# xmcd
#
# Track frame offsets:
#	150
#	10568
#	26220
#	42027
#	56676
#	59261
#	73004
#	86098
#	102288
#	115270
#	117832
#	130137
#	143036
#	145011
#	159051
#	172863
#	184142
#	184794
#	198596
#	199376
#	213071
#	228715
#	230755
#	240983
#
# Disc length: 3247 seconds
#
# Revision: 1
# Processed by: cddbd v1.4PL0 Copyright (c) Steve Scherf et al.
# Submitted via: CDmax 1.8
#
DISCID=4b0cad18
DTITLE=Cornell Hurd Band - Cool and Unusual Punishment
DYEAR=1900
DGENRE=Country
TTITLE0=I Don't Care What It Is That You Did When You Lived In Ft. Worth
TTITLE1=Seven Cups Of Coffee, Fourteen Cigarettes
TTITLE2=The Cold Morning Light
TTITLE3=Your Ex-Husband Sent Me Flowers ('Cause He Feels Sorry For Me)
TTITLE4="The Worst Gig You Ever Played" Contest (17th runner-up)
TTITLE5=Crazy 'Cause I Love You
TTITLE6=Drivin' Nails In My Coffin
TTITLE7=I'm Tired Of Wanting Something I Can't Have
TTITLE8=I Start Out Dreaming, I Wake Up Screaming
TTITLE9=Hank Williams Death Pact
TTITLE10=It Was Either The Whiskey Or The Wife
TTITLE11=When I Close My Eyes I Feel You In His Arms
TTITLE12=Here's Your Fruit
TTITLE13=I'm Gonna Drive
TTITLE14=The Devil's Disciple
TTITLE15=Keep A Light In The Window For Me
TTITLE16=Manhood
TTITLE17=I'm Mad With You
TTITLE18=Lalo
TTITLE19=Do You Believe (In Reincarnation)?
TTITLE20=She'll Always Love Me
TTITLE21="The Wierdest Act You Ever Saw" Contest
TTITLE22=Big Ole Heartache
TTITLE23=Well, boys...
EXTD=
EXTT0=
EXTT1=
EXTT2=
EXTT3=
EXTT4=
EXTT5=
EXTT6=
EXTT7=
EXTT8=
EXTT9=
EXTT10=
EXTT11=
EXTT12=
EXTT13=
EXTT14=
EXTT15=
EXTT16=
EXTT17=
EXTT18=
EXTT19=
EXTT20=
EXTT21=
EXTT22=
EXTT23=
PLAYORDER=
